<svg id="0a00df73-bbfc-4524-ac84-ab0234c06dd6" data-name="Layer 2" xmlns="http://www.w3.org/2000/svg" viewBox="0 0 509.6 158.28"><defs><style>.acd89953-7fc2-404d-875c-5c4cce238c10{fill:#c41c30;}.dfd7abc6-8ac9-4327-b52d-191d27dc3ba5{fill:#fff;}.\36 bea45d8-6e5c-4ad3-a6cd-90d0c4857516{fill:#ac162c;}</style></defs><title>WEBU16</title><rect y="62.13" width="509.6" height="96.15"/><rect class="acd89953-7fc2-404d-875c-5c4cce238c10" x="334.39" y="2.84" width="130.99" height="73.79"/><path class="dfd7abc6-8ac9-4327-b52d-191d27dc3ba5" d="M386.31,105.14c-2.51,0-4.1,1.37-4.1,5v5.39h-7.47v-4.89c0-8,4-12.65,11.79-12.65s11.79,4.6,11.79,12.65c0,6.68-2.44,12.07-9.77,19.91-4.67,5-6,7.4-6,10.06a5.41,5.41,0,0,0,.07,1.08H397.6v7.19H374.74v-6.18c0-5.61,2-9.85,7.91-16,6-6.4,7.76-10.35,7.76-15.74C390.41,106.37,388.83,105.14,386.31,105.14Z" transform="translate(-30 -83.63)"/><path class="dfd7abc6-8ac9-4327-b52d-191d27dc3ba5" d="M402.56,110.61c0-8,4.24-12.65,12-12.65s12,4.6,12,12.65v26.16c0,8-4.24,12.65-12,12.65s-12-4.6-12-12.65Zm7.91,26.66c0,3.59,1.58,5,4.1,5s4.1-1.37,4.1-5V110.1c0-3.59-1.58-5-4.1-5s-4.1,1.37-4.1,5Z" transform="translate(-30 -83.63)"/><path class="dfd7abc6-8ac9-4327-b52d-191d27dc3ba5" d="M436.56,104.86c6.11,0,7.47-2.95,8.7-6.32h5.32v50.31h-7.91V110.46h-6.11Z" transform="translate(-30 -83.63)"/><path class="dfd7abc6-8ac9-4327-b52d-191d27dc3ba5" d="M459.63,111c0-8.48,3.88-13.08,12.07-13.08,7.76,0,11.79,4.6,11.79,12.65v1.29H476v-1.8c0-3.59-1.58-5-4.1-5-2.8,0-4.38,1.37-4.38,6.18v9.13h.14a7.27,7.27,0,0,1,7.19-4.38c5.82,0,8.77,4.1,8.77,11.5v9.2c0,8-4.24,12.65-12,12.65s-12-4.6-12-12.65Zm7.91,17.18v9.06c0,3.59,1.58,4.89,4.1,4.89s4.1-1.29,4.1-4.89v-9.06c0-3.59-1.58-5-4.1-5S467.53,124.62,467.53,128.21Z" transform="translate(-30 -83.63)"/><path class="dfd7abc6-8ac9-4327-b52d-191d27dc3ba5" d="M69.93,190.87h-.19L66,226.73H51.31l-7.56-67.29H54.12l5.63,53.06h.19l5-53.06H75.27l5.24,53.45h.19l5.43-53.45h9.31l-7.56,67.29H73.71Z" transform="translate(-30 -83.63)"/><path class="dfd7abc6-8ac9-4327-b52d-191d27dc3ba5" d="M111.44,187.79h14.64v9.61H111.44v19.71h18.43v9.61h-29.1V159.44h29.1V169H111.44Z" transform="translate(-30 -83.63)"/><path class="dfd7abc6-8ac9-4327-b52d-191d27dc3ba5" d="M168.36,174.91v2.4c0,6.92-2.13,11.25-6.89,13.46V191c5.72,2.21,8,7.21,8,14.32v5.48c0,10.38-5.53,16-16.2,16H136.46V159.44h16.1C163.61,159.44,168.36,164.53,168.36,174.91ZM147.12,169v17.78h4.17c4,0,6.4-1.73,6.4-7.11V176c0-4.81-1.65-6.92-5.43-6.92Zm0,27.4v20.67h6.11c3.59,0,5.53-1.63,5.53-6.63v-5.86c0-6.25-2-8.17-6.89-8.17Z" transform="translate(-30 -83.63)"/><path class="dfd7abc6-8ac9-4327-b52d-191d27dc3ba5" d="M201,159.44v51.91c0,4.81,2.13,6.54,5.53,6.54s5.53-1.73,5.53-6.54V159.44h10.09v51.24c0,10.77-5.43,16.92-15.91,16.92s-15.91-6.15-15.91-16.92V159.44Z" transform="translate(-30 -83.63)"/><path class="dfd7abc6-8ac9-4327-b52d-191d27dc3ba5" d="M239.16,178H239v48.74h-9.6V159.44h13.38l10.77,40.28h.19V159.44h9.5v67.29h-11Z" transform="translate(-30 -83.63)"/><path class="dfd7abc6-8ac9-4327-b52d-191d27dc3ba5" d="M270.87,159.44h10.67v57.68h17.55v9.61H270.87Z" transform="translate(-30 -83.63)"/><path class="dfd7abc6-8ac9-4327-b52d-191d27dc3ba5" d="M314.41,187.79h14.64v9.61H314.41v19.71h18.43v9.61h-29.1V159.44h29.1V169H314.41Z" transform="translate(-30 -83.63)"/><path class="dfd7abc6-8ac9-4327-b52d-191d27dc3ba5" d="M374,226.73H363.19l-1.84-12.21H348.26l-1.84,12.21h-9.8l10.86-67.29h15.62Zm-24.34-21.34h10.28l-5-34h-.19Z" transform="translate(-30 -83.63)"/><path class="dfd7abc6-8ac9-4327-b52d-191d27dc3ba5" d="M393.25,158.67c10.38,0,15.71,6.15,15.71,16.92v2.12H398.88v-2.79c0-4.81-1.94-6.63-5.33-6.63s-5.33,1.83-5.33,6.63,2.13,8.56,9.12,14.61c8.92,7.79,11.74,13.36,11.74,21.05,0,10.77-5.43,16.92-15.91,16.92s-15.91-6.15-15.91-16.92v-4.13h10.09v4.81c0,4.81,2.13,6.54,5.53,6.54s5.53-1.73,5.53-6.54-2.13-8.56-9.12-14.61c-8.92-7.79-11.74-13.36-11.74-21.05C377.54,164.82,382.88,158.67,393.25,158.67Z" transform="translate(-30 -83.63)"/><path class="dfd7abc6-8ac9-4327-b52d-191d27dc3ba5" d="M425.84,226.73H415.17V159.44h10.67v28.84H438V159.44h10.86v67.29H438V197.89H425.84Z" transform="translate(-30 -83.63)"/><path class="dfd7abc6-8ac9-4327-b52d-191d27dc3ba5" d="M467.25,187.79h14.64v9.61H467.25v19.71h18.43v9.61H456.58V159.44h29.09V169H467.25Z" transform="translate(-30 -83.63)"/><path class="dfd7abc6-8ac9-4327-b52d-191d27dc3ba5" d="M492.27,159.44h16.88c10.67,0,15.91,5.86,15.91,16.63v34c0,10.77-5.24,16.63-15.91,16.63H492.27ZM502.94,169v48.06h6c3.39,0,5.43-1.73,5.43-6.54v-35c0-4.81-2-6.54-5.43-6.54Z" transform="translate(-30 -83.63)"/><path class="dfd7abc6-8ac9-4327-b52d-191d27dc3ba5" d="M88.36,112.22a.62.62,0,0,0-.63-.74H85.61a.9.9,0,0,0-.72.39h0A4.06,4.06,0,0,1,81.47,114a2.86,2.86,0,0,1-2.9-3.34,4,4,0,0,1,3.67-3.38h2.59a1,1,0,0,0,.93-.79l.32-1.92a.66.66,0,0,0-.67-.79h-12l.66-4.34a.67.67,0,0,0-.68-.79H71.27a1,1,0,0,0-.92.79l-.66,4.34H68.12a1,1,0,0,0-.93.79l-.31,1.92a.66.66,0,0,0,.67.79h1.62l-1.4,9.23a.67.67,0,0,0,.68.79h2.16a1,1,0,0,0,.92-.79l1.4-9.23h2a2.45,2.45,0,0,0,1.15-.47,17.27,17.27,0,0,1,1.57-1A8,8,0,0,0,75,110.7a5.88,5.88,0,0,0,6,6.88A8,8,0,0,0,88.36,112.22Z" transform="translate(-30 -83.63)"/><path class="dfd7abc6-8ac9-4327-b52d-191d27dc3ba5" d="M58,112.4l.78-5.07h3.57l-1.42,9.28a.63.63,0,0,0,.64.74h2.25a.91.91,0,0,0,.86-.74s1.67-10.7,1.66-11a1.76,1.76,0,0,0-1.75-1.75H59.28l.49-3.23a2.13,2.13,0,0,1,2-1.69,1.4,1.4,0,0,1,1.44,1.76l-.11.73a.67.67,0,0,0,.68.79H66a1,1,0,0,0,.92-.79A7.31,7.31,0,0,0,67,98.76a4.8,4.8,0,0,0-4.7-3.41A6.43,6.43,0,0,0,56,100.93l-.43,2.9H52.42a1,1,0,0,0-.93.79l-.31,1.92a.66.66,0,0,0,.67.79H55s-.71,4.68-.77,5a2,2,0,0,1-2.06,1.69c-1.49,0-1.58-1.28-1.29-2.49a.65.65,0,0,0-.66-.79h-2a1,1,0,0,0-.89.76h0a5.91,5.91,0,0,0,0,2.67,4.51,4.51,0,0,0,4.49,3.41A6.62,6.62,0,0,0,58,112.4Z" transform="translate(-30 -83.63)"/><path class="6bea45d8-6e5c-4ad3-a6cd-90d0c4857516" d="M67.76,83.63A25.46,25.46,0,1,0,93.22,109.1,25.46,25.46,0,0,0,67.76,83.63ZM75,110.7a8,8,0,0,1,2.65-4.85,17.27,17.27,0,0,0-1.57,1,2.45,2.45,0,0,1-1.15.47h-2l-1.4,9.23a1,1,0,0,1-.92.79H68.45a.67.67,0,0,1-.68-.79l1.4-9.23H67.55a.66.66,0,0,1-.67-.79l.31-1.92a1,1,0,0,1,.93-.79H69.7l.66-4.34a1,1,0,0,1,.92-.79h2.16a.67.67,0,0,1,.68.79l-.66,4.34h12a.66.66,0,0,1,.67.79l-.32,1.92a1,1,0,0,1-.93.79H82.24a4,4,0,0,0-3.67,3.38,2.86,2.86,0,0,0,2.9,3.34,4.06,4.06,0,0,0,3.42-2.17h0a.9.9,0,0,1,.72-.39h2.12a.62.62,0,0,1,.63.74A8,8,0,0,1,81,117.58,5.88,5.88,0,0,1,75,110.7Zm-27.71,3.5a5.91,5.91,0,0,1,0-2.67h0a1,1,0,0,1,.89-.76h2a.65.65,0,0,1,.66.79c-.29,1.21-.2,2.49,1.29,2.49a2,2,0,0,0,2.06-1.69c.06-.37.77-5,.77-5H51.84a.66.66,0,0,1-.67-.79l.31-1.92a1,1,0,0,1,.93-.79h3.12l.43-2.9a6.43,6.43,0,0,1,6.38-5.58A4.8,4.8,0,0,1,67,98.76a7.31,7.31,0,0,1-.09,2.64,1,1,0,0,1-.92.79H63.74a.67.67,0,0,1-.68-.79l.11-.73a1.4,1.4,0,0,0-1.44-1.76,2.13,2.13,0,0,0-2,1.69l-.49,3.23h5.29a1.76,1.76,0,0,1,1.75,1.75c0,.33-1.66,11-1.66,11a.91.91,0,0,1-.86.74H61.54a.63.63,0,0,1-.64-.74l1.42-9.28H58.75L58,112.4a6.62,6.62,0,0,1-6.15,5.21A4.51,4.51,0,0,1,47.33,114.2Z" transform="translate(-30 -83.63)"/><path d="M106.75,105.94v1.17h0a3.1,3.1,0,0,1,1.06-1.12,2.85,2.85,0,0,1,1.44-.34,2.77,2.77,0,0,1,2.56,1.36,9,9,0,0,1,.82,4.44,8.81,8.81,0,0,1-.82,4.4,2.79,2.79,0,0,1-2.56,1.33,2.61,2.61,0,0,1-2.38-1.25h0v4.57H104V105.94Zm.4,8.22a1.17,1.17,0,0,0,1.22.91,1.16,1.16,0,0,0,1.2-.91,13.47,13.47,0,0,0,0-5.43,1.16,1.16,0,0,0-1.2-.91,1.17,1.17,0,0,0-1.22.91,13.44,13.44,0,0,0,0,5.43Z" transform="translate(-30 -83.63)"/><path d="M119,105.94v1.47h0a4,4,0,0,1,1-1.28,2.35,2.35,0,0,1,1.5-.48h.26l.26,0v2.7l-.44,0h-.44a2.74,2.74,0,0,0-.74.1,2,2,0,0,0-.68.34,1.69,1.69,0,0,0-.49.61,2.12,2.12,0,0,0-.18.93V117h-2.83v-11Z" transform="translate(-30 -83.63)"/><path d="M127.62,112.76a6.19,6.19,0,0,0,.07,1,3.1,3.1,0,0,0,.24.82,1.54,1.54,0,0,0,.43.57,1,1,0,0,0,.66.22,1.15,1.15,0,0,0,1-.51,3.78,3.78,0,0,0,.45-1.56H133a4.42,4.42,0,0,1-1,2.93,3.9,3.9,0,0,1-3,1,4.71,4.71,0,0,1-2.4-.51,3.18,3.18,0,0,1-1.27-1.35,5.32,5.32,0,0,1-.5-1.88q-.09-1-.09-2.09a14.41,14.41,0,0,1,.15-2.13,5.15,5.15,0,0,1,.61-1.82,3.34,3.34,0,0,1,1.32-1.27,4.78,4.78,0,0,1,2.29-.47,4.46,4.46,0,0,1,2,.4,3,3,0,0,1,1.24,1.13,4.73,4.73,0,0,1,.61,1.76,14.84,14.84,0,0,1,.16,2.3v.64h-5.59Zm2.81-3.68a2.86,2.86,0,0,0-.22-.82,1.15,1.15,0,0,0-.43-.51,1.31,1.31,0,0,0-.71-.17,1.2,1.2,0,0,0-.71.19,1.4,1.4,0,0,0-.44.51,2.52,2.52,0,0,0-.24.71,4.29,4.29,0,0,0-.07.78v.43h2.89Q130.49,109.57,130.43,109.09Z" transform="translate(-30 -83.63)"/><path d="M138.8,113.72a1.71,1.71,0,0,0,.38,1.16,1.37,1.37,0,0,0,1.1.44,1.57,1.57,0,0,0,1-.33,1.21,1.21,0,0,0,.39-1,1,1,0,0,0-.31-.81,2.39,2.39,0,0,0-.72-.44l-2-.72a3.77,3.77,0,0,1-1.76-1.16,3,3,0,0,1-.59-1.92,3.63,3.63,0,0,1,.23-1.28,2.69,2.69,0,0,1,.72-1.05,3.56,3.56,0,0,1,1.26-.72,5.68,5.68,0,0,1,1.85-.27,4.2,4.2,0,0,1,2.85.82,2.94,2.94,0,0,1,.92,2.31v.45h-2.54a2.25,2.25,0,0,0-.28-1.26,1.1,1.1,0,0,0-1-.4,1.52,1.52,0,0,0-.93.3,1,1,0,0,0-.4.89,1.16,1.16,0,0,0,.26.74,2,2,0,0,0,1,.55l1.7.57a3.85,3.85,0,0,1,1.88,1.18,3.19,3.19,0,0,1,.55,2,3.52,3.52,0,0,1-.31,1.53,3,3,0,0,1-.85,1.08A3.33,3.33,0,0,1,142,117a6.89,6.89,0,0,1-1.65.18,7.34,7.34,0,0,1-2-.23,2.88,2.88,0,0,1-1.25-.68,2.44,2.44,0,0,1-.65-1.1,5.27,5.27,0,0,1-.18-1.44v-.39h2.54Z" transform="translate(-30 -83.63)"/><path d="M150.3,112.76a6.19,6.19,0,0,0,.07,1,3.1,3.1,0,0,0,.24.82,1.54,1.54,0,0,0,.43.57,1,1,0,0,0,.66.22,1.15,1.15,0,0,0,1-.51,3.78,3.78,0,0,0,.45-1.56h2.54a4.42,4.42,0,0,1-1,2.93,3.9,3.9,0,0,1-3,1,4.71,4.71,0,0,1-2.4-.51,3.18,3.18,0,0,1-1.27-1.35,5.32,5.32,0,0,1-.5-1.88q-.09-1-.09-2.09a14.41,14.41,0,0,1,.15-2.13,5.15,5.15,0,0,1,.61-1.82,3.34,3.34,0,0,1,1.32-1.27,4.78,4.78,0,0,1,2.29-.47,4.46,4.46,0,0,1,2,.4,3,3,0,0,1,1.24,1.13,4.73,4.73,0,0,1,.61,1.76,14.84,14.84,0,0,1,.16,2.3v.64H150.3Zm2.81-3.68a2.86,2.86,0,0,0-.22-.82,1.15,1.15,0,0,0-.43-.51,1.31,1.31,0,0,0-.71-.17,1.2,1.2,0,0,0-.71.19,1.4,1.4,0,0,0-.44.51,2.52,2.52,0,0,0-.24.71,4.29,4.29,0,0,0-.07.78v.43h2.89Q153.16,109.57,153.1,109.09Z" transform="translate(-30 -83.63)"/><path d="M162.12,105.94v1.29h0a2.87,2.87,0,0,1,1.17-1.2,3.45,3.45,0,0,1,1.64-.38,2.79,2.79,0,0,1,2.08.74,3.32,3.32,0,0,1,.73,2.4V117h-2.83v-7.6a1.89,1.89,0,0,0-.29-1.2,1.15,1.15,0,0,0-.92-.34q-1.5,0-1.5,1.82V117h-2.83v-11Z" transform="translate(-30 -83.63)"/><path d="M175.14,102.79v3.15h1.64v1.93h-1.64v6a1.67,1.67,0,0,0,.19.93.94.94,0,0,0,.81.28h.33l.31,0v2q-.47,0-.91,0c-.29,0-.6,0-.93,0a6.55,6.55,0,0,1-1.34-.11,1.36,1.36,0,0,1-.8-.45,1.94,1.94,0,0,1-.38-.89,7.84,7.84,0,0,1-.1-1.39v-6.31h-1.43v-1.93h1.43v-3.15Z" transform="translate(-30 -83.63)"/><path d="M181.88,113.72a1.71,1.71,0,0,0,.38,1.16,1.37,1.37,0,0,0,1.1.44,1.57,1.57,0,0,0,1-.33,1.21,1.21,0,0,0,.39-1,1,1,0,0,0-.31-.81,2.39,2.39,0,0,0-.72-.44l-2-.72a3.77,3.77,0,0,1-1.76-1.16,3,3,0,0,1-.59-1.92,3.63,3.63,0,0,1,.23-1.28,2.69,2.69,0,0,1,.72-1.05,3.56,3.56,0,0,1,1.26-.72,5.68,5.68,0,0,1,1.85-.27,4.2,4.2,0,0,1,2.85.82,2.94,2.94,0,0,1,.92,2.31v.45h-2.54a2.25,2.25,0,0,0-.28-1.26,1.1,1.1,0,0,0-1-.4,1.52,1.52,0,0,0-.93.3,1,1,0,0,0-.4.89,1.16,1.16,0,0,0,.26.74,2,2,0,0,0,1,.55l1.7.57a3.85,3.85,0,0,1,1.88,1.18,3.19,3.19,0,0,1,.55,2,3.52,3.52,0,0,1-.31,1.53,3,3,0,0,1-.85,1.08A3.33,3.33,0,0,1,185,117a6.89,6.89,0,0,1-1.65.18,7.34,7.34,0,0,1-2-.23,2.88,2.88,0,0,1-1.25-.68,2.44,2.44,0,0,1-.65-1.1,5.27,5.27,0,0,1-.18-1.44v-.39h2.54Z" transform="translate(-30 -83.63)"/></svg>